<?xml version="1.0" standalone="no"?>
<!DOCTYPE svg PUBLIC "-//W3C//DTD SVG 20010904//EN"
 "http://www.w3.org/TR/2001/REC-SVG-20010904/DTD/svg10.dtd">
<svg version="1.0" xmlns="http://www.w3.org/2000/svg"
 width="30" height="30" viewBox="0 0 512.000000 512.000000"
 preserveAspectRatio="xMidYMid meet">

<g transform="translate(0.000000,512.000000) scale(0.100000,-0.100000)"
fill="white" stroke="none">
<path d="M310 2994 c-93 -20 -168 -50 -221 -89 -110 -80 -118 -227 -18 -322
68 -64 154 -87 469 -123 198 -24 245 -35 266 -64 22 -32 17 -74 -11 -100 -26
-24 -104 -49 -186 -61 -59 -8 -200 10 -282 35 -104 32 -187 106 -187 168 0 22
-3 23 -57 20 l-58 -3 0 -155 0 -155 63 -3 62 -3 0 31 c0 16 4 30 10 30 5 0 43
-11 84 -25 186 -62 355 -72 519 -31 187 48 270 125 270 251 0 73 -25 128 -82
177 -71 60 -188 90 -491 123 -80 9 -162 21 -183 26 -70 18 -83 83 -23 122 66
44 250 60 378 32 126 -26 205 -74 234 -142 13 -31 17 -33 64 -33 l50 0 0 135
0 135 -55 0 c-48 0 -55 -3 -55 -19 0 -31 -12 -32 -80 -4 -144 58 -341 77 -480
47z"/>
<path d="M1675 2996 c-260 -51 -412 -178 -446 -374 -31 -177 63 -343 245 -432
102 -50 176 -69 297 -77 285 -18 528 94 617 285 24 51 27 69 27 167 0 104 -2
113 -32 171 -36 69 -123 155 -199 196 -121 65 -353 95 -509 64z m318 -144 c71
-35 113 -78 149 -152 33 -67 32 -215 -2 -285 -32 -65 -89 -121 -159 -154 -49
-23 -69 -26 -156 -26 -94 0 -105 2 -168 33 -114 57 -177 160 -177 292 0 148
81 264 220 314 32 12 71 15 136 13 79 -2 100 -7 157 -35z"/>
<path d="M2550 2910 l0 -50 59 0 c96 0 92 14 89 -313 l-3 -282 -67 -3 -68 -3
0 -49 0 -50 230 0 230 0 0 50 0 50 -67 0 c-38 0 -74 4 -81 8 -9 7 -12 59 -10
229 l3 221 313 -279 313 -279 80 0 80 0 -2 339 c-1 187 2 344 5 350 4 6 37 11
77 11 l69 0 0 50 0 50 -235 0 -235 0 0 -50 0 -50 63 0 c34 0 69 -5 77 -10 12
-8 16 -43 18 -196 l4 -187 -59 51 c-32 28 -155 138 -273 246 l-215 195 -197 1
-198 0 0 -50z"/>
<path d="M3890 2910 l0 -50 60 0 c32 0 71 -5 85 -12 14 -6 100 -96 190 -199
l165 -187 0 -89 c0 -56 -4 -93 -12 -101 -7 -7 -39 -12 -75 -12 l-63 0 0 -50 0
-50 275 0 275 0 0 50 0 50 -68 0 c-40 0 -73 5 -80 12 -8 8 -12 46 -12 104 l0
93 151 173 c200 230 185 218 270 218 l69 0 0 50 0 50 -225 0 -225 0 0 -50 0
-50 39 0 c22 0 42 -4 46 -9 6 -10 -182 -241 -196 -241 -15 0 -201 229 -194
240 3 5 24 10 46 10 l39 0 0 50 0 50 -280 0 -280 0 0 -50z"/>
</g>
</svg>
